# xmcd CD database file
#
# Track frame offsets:
#	150
#	18812
#	39620
#	59965
#	92415
#	116315
#	140412
#	162812
#	195902
#	214772
#
# Disc length: 3169 seconds
#
# Revision: 0
# Processed by: cddbd v1.5PL3 Copyright (c) Steve Scherf et al.
# Submitted via: CDex 1.51
#
DISCID=7e0c5f0a
DTITLE=Bluesnick - Tips For Astral Travelers
DYEAR=1996
DGENRE=Blues
TTITLE0=Legend - Lie
TTITLE1=Gates of St. Peter
TTITLE2=I Trust Him
TTITLE3=Bus
TTITLE4=Mountain in the Sky
TTITLE5=Mr. Snow
TTITLE6=Raymond of the Lions
TTITLE7=Sail Away
TTITLE8=When the Fire Becomes a Stranger
TTITLE9=In My Life
EXTD=YEAR: 1996
EXTT0=
EXTT1=
EXTT2=
EXTT3=
EXTT4=
EXTT5=
EXTT6=
EXTT7=
EXTT8=
EXTT9=
PLAYORDER=
